<svg xmlns="http://www.w3.org/2000/svg" version="1.1" xmlns:xlink="http://www.w3.org/1999/xlink" xmlns:svgjs="http://svgjs.dev/svgjs" width="1500" height="1500" viewBox="0 0 1500 1500"><g transform="matrix(1,0,0,1,-0.323615160350073,-0.3236151603499593)"><svg viewBox="0 0 343 343" data-background-color="#001f3f" preserveAspectRatio="xMidYMid meet" height="1500" width="1500" xmlns="http://www.w3.org/2000/svg" xmlns:xlink="http://www.w3.org/1999/xlink"><g id="tight-bounds" transform="matrix(1,0,0,1,0.0740000000000407,0.07400000000001228)"><svg viewBox="0 0 342.85155851775386 342.85155851775386" height="342.85155851775386" width="342.85155851775386"><g><svg></svg></g><g><svg viewBox="0 0 342.85155851775386 342.85155851775386" height="342.85155851775386" width="342.85155851775386"><g><path d="M0 171.426c0-94.676 76.75-171.426 171.426-171.426 94.676 0 171.426 76.75 171.426 171.426 0 94.676-76.75 171.426-171.426 171.426-94.676 0-171.426-76.75-171.426-171.426zM171.426 338.852c92.467 0 167.426-74.959 167.426-167.426 0-92.467-74.959-167.426-167.426-167.426-92.467 0-167.426 74.959-167.426 167.426 0 92.467 74.959 167.426 167.426 167.426z" data-fill-palette-color="tertiary" fill="#f7e1dd" stroke="transparent"></path><ellipse rx="164.56874808852186" ry="164.56874808852186" cx="171.42577925887693" cy="171.42577925887693" fill="#f7e1dd" stroke="transparent" stroke-width="0" fill-opacity="1" data-fill-palette-color="tertiary"></ellipse></g><g transform="matrix(1,0,0,1,64.84655864529837,104.78239101381442)"><svg viewBox="0 0 213.1584412271571 133.28677649012502" height="133.28677649012502" width="213.1584412271571"><g><svg viewBox="0 0 213.1584412271571 133.28677649012502" height="133.28677649012502" width="213.1584412271571"><g><svg viewBox="0 0 213.1584412271571 133.28677649012502" height="133.28677649012502" width="213.1584412271571"><g transform="matrix(1,0,0,1,0,88.93230736225932)"><svg viewBox="0 0 213.1584412271571 44.35446912786569" height="44.35446912786569" width="213.1584412271571"><g id="textblocktransform"><svg viewBox="0 0 213.1584412271571 44.35446912786569" height="44.35446912786569" width="213.1584412271571" id="textblock"><g><svg viewBox="0 0 213.1584412271571 44.35446912786569" height="44.35446912786569" width="213.1584412271571"><g transform="matrix(1,0,0,1,0,0)"><svg width="213.1584412271571" viewBox="2.5 -35.6 223.93 46.6" height="44.35446912786569" data-palette-color="#001f3f"><path d="M19 0.6L19 0.6Q15.1 0.6 12.05-0.83 9-2.25 6.88-4.73 4.75-7.2 3.63-10.5 2.5-13.8 2.5-17.55L2.5-17.55Q2.5-22.7 4.48-26.78 6.45-30.85 10.15-33.23 13.85-35.6 19-35.6L19-35.6Q22.85-35.6 25.93-34.2 29-32.8 31.15-30.3 33.3-27.8 34.43-24.55 35.55-21.3 35.55-17.55L35.55-17.55Q35.55-13.8 34.43-10.5 33.3-7.2 31.15-4.73 29-2.25 25.95-0.83 22.9 0.6 19 0.6ZM19-3.5L19-3.5Q22.85-3.5 25.45-5.35 28.05-7.2 29.38-10.38 30.7-13.55 30.7-17.55L30.7-17.55Q30.7-20.25 29.9-22.75 29.1-25.25 27.6-27.23 26.1-29.2 23.93-30.35 21.75-31.5 19-31.5L19-31.5Q15.35-31.5 12.73-29.65 10.1-27.8 8.72-24.65 7.35-21.5 7.35-17.55L7.35-17.55Q7.35-14.85 8.13-12.33 8.9-9.8 10.4-7.8 11.9-5.8 14.08-4.65 16.25-3.5 19-3.5ZM47.5 11L43 11 43-19.35Q43-21.05 42.17-21.78 41.35-22.5 40.05-22.5L40.05-22.5 41-26Q45.6-26 46.75-22.35L46.75-22.35Q47.25-23.1 48.37-24.1 49.5-25.1 51.17-25.85 52.85-26.6 55-26.6L55-26.6Q58-26.6 60.62-25.03 63.25-23.45 64.85-20.48 66.45-17.5 66.45-13.25L66.45-13.25Q66.45-9.1 64.85-5.98 63.25-2.85 60.67-1.13 58.1 0.6 55.1 0.6L55.1 0.6Q52.8 0.6 50.8-0.33 48.8-1.25 47.5-2.45L47.5-2.45 47.5 11ZM54.2-3.4L54.2-3.4Q57.6-3.4 59.72-6.08 61.85-8.75 61.85-13.1L61.85-13.1Q61.85-16.1 60.77-18.25 59.7-20.4 57.92-21.55 56.15-22.7 54-22.7L54-22.7Q51.85-22.7 50.12-21.63 48.4-20.55 47.5-19.3L47.5-19.3 47.5-6.5Q48.8-5.15 50.5-4.28 52.2-3.4 54.2-3.4ZM83.1 0.6L83.1 0.6Q77.5 0.6 74.22-2.98 70.95-6.55 70.95-13L70.95-13Q70.95-16.9 72.42-19.98 73.9-23.05 76.55-24.83 79.2-26.6 82.7-26.6L82.7-26.6Q86.45-26.6 88.92-24.98 91.4-23.35 92.65-20.6 93.9-17.85 93.9-14.55L93.9-14.55Q93.9-12.8 93.75-11.15L93.75-11.15 75.55-11.15Q76-7.5 78.1-5.45 80.2-3.4 83.65-3.4L83.65-3.4Q85.9-3.4 87.7-3.88 89.5-4.35 91.15-5.1L91.15-5.1 92.2-1.25Q90.4-0.45 88.15 0.08 85.9 0.6 83.1 0.6ZM75.5-14.8L75.5-14.8 89.75-14.8Q89.75-18.6 87.85-20.65 85.95-22.7 82.6-22.7L82.6-22.7Q79.7-22.7 77.8-20.68 75.9-18.65 75.5-14.8ZM104.39 0L99.89 0 99.89-26 104.24-26 104.24-21.65Q105.64-23.75 107.82-25.18 109.99-26.6 112.99-26.6L112.99-26.6Q117.39-26.6 119.57-23.95 121.74-21.3 121.74-16.95L121.74-16.95 121.74 0 117.24 0 117.24-16.45Q117.24-19.25 115.92-20.95 114.59-22.65 112.24-22.65L112.24-22.65Q109.94-22.65 107.89-21.03 105.84-19.4 104.39-17.2L104.39-17.2 104.39 0ZM134.74 0L129.99 0 129.99-34.9Q132.04-35.15 134.52-35.27 136.99-35.4 139.64-35.4L139.64-35.4Q143.99-35.4 147.04-34.02 150.09-32.65 151.69-30.25 153.29-27.85 153.29-24.75L153.29-24.75Q153.29-21 151.44-18.4 149.59-15.8 146.29-14.43 142.99-13.05 138.64-13.05L138.64-13.05Q136.54-13.05 134.74-13.2L134.74-13.2 134.74 0ZM139.24-17L139.24-17Q143.69-17 146.14-19 148.59-21 148.59-24.35L148.59-24.35Q148.59-27.6 146.24-29.5 143.89-31.4 139.54-31.4L139.54-31.4Q138.19-31.4 136.99-31.35 135.79-31.3 134.74-31.2L134.74-31.2 134.74-17.25Q135.54-17.15 136.69-17.07 137.84-17 139.24-17ZM168.74 0.6L168.74 0.6Q165.04 0.6 162.09-1.13 159.14-2.85 157.46-5.93 155.79-9 155.79-13L155.79-13Q155.79-17.2 157.49-20.25 159.19-23.3 162.14-24.95 165.09-26.6 168.74-26.6L168.74-26.6Q172.39-26.6 175.31-24.95 178.24-23.3 179.96-20.28 181.69-17.25 181.69-13.1L181.69-13.1Q181.69-8.95 179.99-5.88 178.29-2.8 175.36-1.1 172.44 0.6 168.74 0.6ZM168.74-3.4L168.74-3.4Q172.69-3.4 174.89-6.08 177.09-8.75 177.09-13L177.09-13Q177.09-15.6 175.99-17.78 174.89-19.95 173.01-21.28 171.14-22.6 168.74-22.6L168.74-22.6Q164.79-22.6 162.59-20 160.39-17.4 160.39-13.1L160.39-13.1Q160.39-10.5 161.49-8.28 162.59-6.05 164.46-4.73 166.34-3.4 168.74-3.4ZM194.69 0.6L194.69 0.6Q191.74 0.6 189.36-0.15 186.99-0.9 185.44-2.1L185.44-2.1 187.34-5.85Q188.64-4.75 190.61-4.03 192.59-3.3 194.84-3.3L194.84-3.3Q197.64-3.3 199.06-4.23 200.49-5.15 200.49-6.6L200.49-6.6Q200.49-7.65 199.96-8.45 199.44-9.25 198.04-10.03 196.64-10.8 193.99-11.7L193.99-11.7Q190.34-12.95 188.51-14.68 186.69-16.4 186.69-19.45L186.69-19.45Q186.69-22.45 189.31-24.53 191.94-26.6 196.59-26.6L196.59-26.6Q199.09-26.6 201.04-26.08 202.99-25.55 204.54-24.75L204.54-24.75 203.29-21.05Q201.94-21.85 200.21-22.35 198.49-22.85 196.39-22.85L196.39-22.85Q193.79-22.85 192.44-21.8 191.09-20.75 191.09-19.5L191.09-19.5Q191.09-18.3 192.14-17.45 193.19-16.6 196.24-15.6L196.24-15.6Q201.19-13.95 203.14-11.95 205.09-9.95 205.09-6.95L205.09-6.95Q205.09-3.45 202.26-1.43 199.44 0.6 194.69 0.6ZM220.18 0.6L220.18 0.6Q216.43 0.6 214.26-1.88 212.08-4.35 212.08-8.95L212.08-8.95 212.08-21.15 207.58-21.15 207.58-25.05 212.18-25.05 213.13-33.25 216.58-33.25 216.58-25.05 223.78-25.05 223.78-21.15 216.58-21.15 216.58-8.6Q216.58-5.7 217.81-4.55 219.03-3.4 220.73-3.4L220.73-3.4Q221.98-3.4 223.11-3.8 224.23-4.2 225.18-4.75L225.18-4.75 226.43-1.15Q225.43-0.55 223.73 0.03 222.03 0.6 220.18 0.6Z" opacity="1" transform="matrix(1,0,0,1,0,0)" fill="#001f3f" class="wordmark-text-0" data-fill-palette-color="quaternary" id="text-0"></path></svg></g></svg></g></svg></g></svg></g><g transform="matrix(1,0,0,1,54.021955516765196,0)"><svg viewBox="0 0 105.11453019362672 78.4612817084293" height="78.4612817084293" width="105.11453019362672"><g><svg xmlns="http://www.w3.org/2000/svg" xmlns:xlink="http://www.w3.org/1999/xlink" version="1.1" x="0" y="0" viewBox="96.386 43.865 1009.643 753.634" enable-background="new 0 0 1187.72 841.89" xml:space="preserve" height="78.4612817084293" width="105.11453019362672" class="icon-icon-0" data-fill-palette-color="quaternary" id="icon-0"><path d="M1106.029 183.51V43.865H869.565V273.805H96.386V284.444C96.386 416.907 132.513 538.816 198.114 627.714 237.046 680.472 286.12 721.635 343.971 750.061 408.036 781.539 483.27 797.499 567.583 797.499S727.13 781.538 791.194 750.061C849.045 721.635 898.118 680.472 937.049 627.714 1002.647 538.818 1038.774 416.909 1038.774 284.444V273.805H922.707V183.51zM215.234 615.079C155.287 533.842 121.022 423.412 117.916 302.503L410.705 462.202 245.551 651.41A394 394 0 0 1 215.234 615.079M781.812 730.963C720.692 760.994 648.616 776.221 567.583 776.221S414.474 760.994 353.354 730.963C319.085 714.125 288.064 692.555 260.605 666.52L429.838 472.639 567.582 547.77 705.322 472.64 874.56 666.519C847.102 692.555 816.08 714.125 781.812 730.963M919.929 615.079A394 394 0 0 1 889.615 651.409L724.456 462.203 1017.244 302.503C1014.138 423.413 979.874 533.844 919.929 615.079M567.583 523.533L148.747 295.082H986.414z" fill="#001f3f" data-fill-palette-color="quaternary"></path></svg></g></svg></g><g></g></svg></g></svg></g></svg></g></svg></g><defs></defs></svg><rect width="342.85155851775386" height="342.85155851775386" fill="none" stroke="none" visibility="hidden"></rect></g></svg></g></svg>